<svg xmlns="http://www.w3.org/2000/svg" viewBox="0 0 24 24">
  <g data-name="Calculator 2">
    <path stroke="#0099ff" d="M20.45 7.83h-2.8v2.81a.5.5 0 0 1-1 0V7.83h-2.81a.5.5 0 0 1 0-1h2.81V4.02a.5.5 0 0 1 1 0v2.81h2.8a.5.5 0 0 1 0 1ZM3.545 7.83a.5.5 0 0 1 0-1h6.619a.5.5 0 0 1 0 1ZM13.836 16.05a.5.5 0 0 1 0-1h6.619a.5.5 0 0 1 0 1ZM13.836 20.191a.5.5 0 0 1 0-1h6.619a.5.5 0 0 1 0 1ZM9.55 19.61a.5.5 0 0 1-.71.7l-1.98-1.98c-.66.65-1.33 1.32-1.99 1.98a.5.5 0 0 1-.71-.7l1.99-1.99-1.99-1.99a.5.5 0 0 1 .71-.7l.58.58 1.4 1.4c.67-.66 1.33-1.32 1.99-1.98a.5.5 0 0 1 .71.7l-1.99 1.99Z"/>
  </g>
</svg>